<svg width="48" height="48" viewBox="0 0 48 48" fill="none" xmlns="http://www.w3.org/2000/svg">
<path d="M23.2129 47.9315C22.3227 47.7261 21.501 47.4522 20.9532 46.699C20.6109 46.2197 20.337 45.6034 20.0631 45.0556C19.9261 44.7817 19.8577 44.6448 19.5838 44.5763C17.8035 44.234 16.0231 43.6177 14.3798 42.796C11.7778 41.495 9.51815 39.7147 7.66936 37.4551C7.46394 37.1812 7.25852 37.1812 6.98463 37.2496C5.27279 37.8659 3.424 37.1127 2.53384 35.5378C1.64368 33.8944 1.98605 31.9087 3.49247 30.8131C3.76637 30.6077 3.83484 30.4023 3.69789 30.0599C2.46537 26.02 2.46537 21.9116 3.69789 17.8716C3.76637 17.5977 3.76637 17.3923 3.49247 17.1869C1.98605 16.0913 1.57521 14.1056 2.46537 12.4622C3.35553 10.8188 5.20431 10.1341 6.98463 10.7504C7.32699 10.8873 7.46394 10.7504 7.66936 10.5449C9.51815 8.28531 11.7778 6.50499 14.3798 5.20399C15.9547 4.38231 17.6665 3.83452 19.3783 3.49215C19.7892 3.42368 20.0631 3.28673 20.2 2.73894C20.4739 1.09558 22.0488 0 23.7607 0C25.4725 0 26.9789 1.23252 27.3213 2.87589C27.3898 3.28673 27.5952 3.42368 27.9376 3.49215C30.745 4.03994 33.2785 5.13552 35.6066 6.77889C37.1815 7.87447 38.551 9.10699 39.715 10.5449C39.9204 10.8188 40.1259 10.8873 40.4682 10.7504C42.1116 10.1341 44.0289 10.8873 44.919 12.3937C45.8092 14.0371 45.4668 16.0228 44.0289 17.1184C43.755 17.3238 43.6865 17.5292 43.755 17.8716C44.9875 21.9116 44.9875 26.02 43.755 30.0599C43.6865 30.3338 43.6865 30.5392 43.9604 30.7447C45.3298 31.7718 45.8092 33.689 45.1244 35.2639C44.3712 36.9073 42.5909 37.8659 40.9475 37.3866C40.1943 37.1812 39.852 37.3866 39.3726 37.9344C36.3598 41.3581 32.5253 43.5492 28.0745 44.5078C27.6637 44.5763 27.3898 44.7817 27.3213 45.2611C26.9104 46.699 25.9518 47.5207 24.5823 47.9315C24.4454 47.9315 24.3769 48 24.24 48C23.8291 47.9315 23.5552 47.9315 23.2129 47.9315ZM23.6922 13.4893C17.9404 13.4893 13.2157 18.214 13.2157 23.9658C13.2157 29.7175 17.9404 34.4422 23.6922 34.4422C29.444 34.4422 34.1686 29.7175 34.1686 23.9658C34.1686 18.214 29.444 13.4893 23.6922 13.4893ZM20.1316 4.86163C15.4069 5.75178 11.5724 8.07989 8.55952 11.7775C9.3812 12.8046 9.6551 13.9001 9.3812 15.1327C9.3812 15.2696 9.51815 15.4066 9.58662 15.475C10.4768 15.9544 11.3669 16.4337 12.2571 16.913C12.6679 17.1184 13.0788 17.3923 13.4896 17.5977C15.9547 13.9686 19.3099 11.9829 23.6922 11.9829C28.0745 11.9829 31.3612 14.0371 33.8263 17.5977C34.9903 16.9815 36.0859 16.3652 37.1815 15.7489C37.7293 15.475 38.0716 15.2011 37.9347 14.4479C37.7293 13.4208 38.1401 12.5307 38.8249 11.709C35.812 8.01141 31.9775 5.68331 27.2528 4.79315C26.7735 6.2311 25.8149 7.05278 24.3769 7.39515C24.3769 8.42225 24.3769 9.44936 24.3769 10.408C23.8976 10.408 23.4183 10.408 22.8705 10.408C22.8705 9.38089 22.8705 8.35378 22.8705 7.39515C21.5695 7.05278 20.6109 6.2311 20.1316 4.86163ZM8.55952 36.1541C11.6408 39.8516 15.4069 42.1797 20.1316 43.0699C20.6109 41.7004 21.5695 40.8103 23.0075 40.4679C23.0075 39.4408 23.0075 38.4137 23.0075 37.4551C23.5552 37.4551 23.9661 37.4551 24.5139 37.4551C24.5139 38.4822 24.5139 39.5093 24.5139 40.4679C25.9518 40.8103 26.842 41.7004 27.3213 43.0699C32.046 42.1113 35.8805 39.8516 38.8933 36.1541C38.0032 34.7846 37.9347 34.3738 38.0716 32.7989C38.0716 32.6619 38.0032 32.525 37.9347 32.4565C36.6337 31.7033 35.2642 31.0185 33.8948 30.2653C31.4297 33.8944 28.0745 35.8802 23.6922 35.8802C19.3099 35.8802 15.9547 33.826 13.4896 30.2653C12.1201 31.0185 10.8191 31.7033 9.51815 32.4565C9.44968 32.525 9.31273 32.6619 9.3812 32.7989C9.6551 34.0999 9.31273 35.1954 8.55952 36.1541ZM12.8049 28.9643C11.3669 25.6091 11.3669 22.2539 12.8049 18.8987C11.3669 18.1455 9.99747 17.3238 8.55952 16.5706C7.60089 17.5977 6.50531 18.0086 5.13584 17.8716C3.90331 21.9116 3.90331 25.883 5.13584 29.923C6.50531 29.786 7.60089 30.2653 8.55952 31.224C9.99747 30.5392 11.3669 29.786 12.8049 28.9643ZM38.8249 31.2924C39.715 30.4023 40.7421 29.8545 42.0431 29.923C42.1116 29.923 42.317 29.7175 42.3855 29.6491C43.0702 27.4579 43.3441 25.2668 43.2072 22.9387C43.1387 21.2268 42.8648 19.5835 42.2485 17.9401C40.9475 18.077 39.852 17.6662 38.9618 16.776C38.8933 16.7076 38.6879 16.7076 38.551 16.776C37.9347 17.1184 37.3184 17.4608 36.7706 17.7347C36.0859 18.1455 35.3327 18.4879 34.648 18.8987C36.0859 22.2539 36.0859 25.6091 34.648 28.9643C36.0174 29.786 37.3869 30.5392 38.8249 31.2924ZM23.6922 5.9572C24.9247 5.9572 25.9518 4.9301 25.9518 3.76605C25.9518 2.53352 24.9932 1.50642 23.7607 1.50642C22.5281 1.50642 21.501 2.53352 21.501 3.76605C21.4326 4.9301 22.4597 5.9572 23.6922 5.9572ZM7.94326 14.2425C7.94326 13.01 6.91615 11.9829 5.68363 11.9829C4.4511 11.9829 3.424 13.01 3.424 14.2425C3.424 15.475 4.4511 16.4337 5.68363 16.4337C6.98463 16.4337 7.94326 15.4066 7.94326 14.2425ZM43.8919 14.2425C43.8919 13.01 42.8648 11.9829 41.7007 11.9829C40.4682 11.9829 39.4411 12.9415 39.4411 14.174C39.4411 15.4066 40.4682 16.4337 41.7007 16.4337C42.8648 16.5021 43.8919 15.475 43.8919 14.2425ZM7.94326 33.689C7.94326 32.4565 6.91615 31.4294 5.68363 31.4294C4.4511 31.4294 3.424 32.4565 3.424 33.689C3.424 34.9215 4.4511 35.9486 5.68363 35.9486C6.98463 35.9486 7.94326 34.9215 7.94326 33.689ZM43.8919 33.689C43.8919 32.4565 42.8648 31.4294 41.7007 31.4294C40.4682 31.4294 39.4411 32.388 39.4411 33.6205C39.4411 34.8531 40.4682 35.8802 41.7007 35.8802C42.8648 35.9486 43.8919 34.9215 43.8919 33.689ZM23.6922 41.9743C22.4597 41.9743 21.4326 43.0014 21.4326 44.1655C21.4326 45.398 22.4597 46.4251 23.6922 46.4251C24.9247 46.4251 25.9518 45.398 25.9518 44.1655C25.9518 42.933 24.9247 41.9743 23.6922 41.9743Z" fill="white"/>
<path d="M21.545 23.0748C20.1071 21.7738 19.9017 20.1989 20.3125 18.487C20.7233 16.7067 22.5037 15.5427 24.2155 15.6796C26.2012 15.885 27.5022 17.3915 27.6392 19.3772C27.7077 20.7467 27.4338 21.9792 26.2697 23.0063C26.4751 23.1432 26.6806 23.3487 26.886 23.4856C27.9816 24.1703 29.1456 24.8551 30.2412 25.4713C30.5151 25.6083 30.652 25.8137 30.5835 26.1561C30.5835 26.8408 30.5835 27.5255 30.5835 28.1418C30.652 29.032 30.1727 29.6482 29.4195 29.9221C28.6663 30.196 27.8446 30.4014 27.0914 30.4699C24.6263 30.6753 22.0928 30.7438 19.6278 30.333C19.2169 30.2645 18.8061 30.1275 18.3952 29.9906C17.5736 29.6482 17.0942 29.032 17.1627 28.1418C17.1627 27.4571 17.1627 26.7723 17.1627 26.0876C17.1627 25.8137 17.2312 25.6768 17.4366 25.5398C18.6007 24.8551 19.6962 24.1703 20.8603 23.4856C21.1342 23.4171 21.3396 23.2802 21.545 23.0748ZM23.5308 29.2374C24.9002 29.1689 25.8589 29.1689 26.8175 29.1004C27.4338 29.032 28.1185 28.895 28.7348 28.7581C29.0771 28.6896 29.1456 28.4842 29.1456 28.1418C29.351 27.0462 28.9402 26.293 27.8446 25.8822C27.7077 25.8137 27.5707 25.7452 27.5022 25.6768C26.6806 25.129 25.8589 24.5127 25.0372 23.9649C24.9687 23.8964 24.7633 23.8965 24.6263 23.8965C24.0786 23.8965 23.5992 23.8965 23.0515 23.8965C22.9145 23.8965 22.7091 23.8964 22.6406 23.9649C21.7505 24.9236 20.5864 25.4713 19.4908 26.0876C18.8061 26.4984 18.4637 26.9093 18.6007 27.731C18.6691 28.6896 18.6691 28.6896 19.5593 28.9635C19.6278 28.9635 19.6278 28.9635 19.6962 28.9635C21.2027 29.032 22.5721 29.1689 23.5308 29.2374ZM21.682 19.788C21.682 19.9935 21.682 20.1989 21.682 20.4043C21.7505 21.5683 22.7091 22.39 23.8047 22.4585C24.9002 22.527 25.9273 21.7738 26.0643 20.6782C26.1328 20.0619 26.1328 19.4457 25.9958 18.8979C25.6535 17.5284 24.0101 16.8437 22.7776 17.5284C22.0243 18.0077 21.682 18.8294 21.682 19.788Z" fill="white"/>
<path d="M24.6958 4.44966C24.2164 4.44966 23.7371 4.44966 23.2578 4.44966C23.2578 3.97035 23.2578 3.49103 23.2578 3.01172C23.7371 3.01172 24.2164 3.01172 24.6958 3.01172C24.6958 3.49103 24.6958 3.97035 24.6958 4.44966Z" fill="white"/>
<path d="M6.68599 14.9267C6.20668 14.9267 5.72736 14.9267 5.24805 14.9267C5.24805 14.4474 5.24805 13.9681 5.24805 13.4888C5.72736 13.4888 6.20668 13.4888 6.68599 13.4888C6.68599 13.9681 6.68599 14.4474 6.68599 14.9267Z" fill="white"/>
<path d="M42.6352 13.4888C42.6352 13.9681 42.6352 14.4474 42.6352 14.9267C42.1559 14.9267 41.6766 14.9267 41.1973 14.9267C41.1973 14.4474 41.1973 13.9681 41.1973 13.4888C41.6766 13.4888 42.1559 13.4888 42.6352 13.4888Z" fill="white"/>
<path d="M6.68599 34.4417C6.20668 34.4417 5.72736 34.4417 5.24805 34.4417C5.24805 33.9624 5.24805 33.4831 5.24805 33.0038C5.72736 33.0038 6.20668 33.0038 6.68599 33.0038C6.68599 33.4831 6.68599 33.9624 6.68599 34.4417Z" fill="white"/>
<path d="M42.6352 33.0038C42.6352 33.4831 42.6352 33.9624 42.6352 34.4417C42.1559 34.4417 41.6766 34.4417 41.1973 34.4417C41.1973 33.9624 41.1973 33.4831 41.1973 33.0038C41.6766 33.0038 42.1559 33.0038 42.6352 33.0038Z" fill="white"/>
<path d="M24.6958 43.4807C24.6958 43.96 24.6958 44.4393 24.6958 44.9187C24.2164 44.9187 23.7371 44.9187 23.2578 44.9187C23.2578 44.4393 23.2578 43.96 23.2578 43.4807C23.7371 43.4807 24.148 43.4807 24.6958 43.4807Z" fill="white"/>
</svg>
